<?xml version="1.0" encoding="iso-8859-1"?>
<!-- Generator: Adobe Illustrator 19.0.0, SVG Export Plug-In . SVG Version: 6.00 Build 0)  -->
<svg xmlns="http://www.w3.org/2000/svg" viewBox="0 0 512 512" width="512" height="512">
  <path style="fill:#FF7043;" d="M419.84 40.96H92.16c-28.232 0-51.2 22.968-51.2 51.2v327.68c0 28.232 22.968 51.2 51.2 51.2h327.68c28.232 0 51.2-22.968 51.2-51.2V92.16c0-28.232-22.968-51.2-51.2-51.2m-40.899 187.628a82 82 0 0 1-7.066.358 76.7 76.7 0 0 1-64.195-34.693v118.139a87.316 87.316 0 1 1-87.316-87.316c1.823 0 3.604.164 5.396.276v43.028c-1.792-.215-3.553-.543-5.396-.543a44.554 44.554 0 1 0 0 89.129c24.617 0 46.356-19.395 46.356-44.012l.43-200.643h41.124a76.7 76.7 0 0 0 70.666 68.454z"/>
</svg>
